<svg xmlns="http://www.w3.org/2000/svg" style="display:none" aria-hidden="true">
  <defs>
    <style>
      symbol { fill: none; stroke: currentColor; stroke-width: 1.9; stroke-linecap: round; stroke-linejoin: round; }
    </style>
  </defs>

  <symbol id="grid" viewBox="0 0 24 24"><rect x="3" y="3" width="7.5" height="7.5" rx="2"/><rect x="13.5" y="3" width="7.5" height="7.5" rx="2"/><rect x="3" y="13.5" width="7.5" height="7.5" rx="2"/><rect x="13.5" y="13.5" width="7.5" height="7.5" rx="2"/></symbol>
  <symbol id="box" viewBox="0 0 24 24"><path d="M21 8.5v7a2 2 0 0 1-1.03 1.75l-7 3.9a2 2 0 0 1-1.94 0l-7-3.9A2 2 0 0 1 3 15.5v-7a2 2 0 0 1 1.03-1.75l7-3.9a2 2 0 0 1 1.94 0l7 3.9A2 2 0 0 1 21 8.5Z"/><path d="m3.3 7.5 8.7 4.8 8.7-4.8M12 21v-8.7"/></symbol>
  <symbol id="radar" viewBox="0 0 24 24"><circle cx="12" cy="12" r="9"/><circle cx="12" cy="12" r="4.6"/><path d="m12 12 6.2-4.2"/><path d="M12 3a9 9 0 0 1 8.5 6"/></symbol>
  <symbol id="sparkles" viewBox="0 0 24 24"><path d="M12 3.2 13.6 8l4.8 1.6L13.6 11.2 12 16l-1.6-4.8L5.6 9.6 10.4 8Z"/><path d="M18.5 15.5 19.3 18l2.5.8-2.5.8-.8 2.5-.8-2.5-2.5-.8 2.5-.8Z"/><path d="M6 15l.6 1.9 1.9.6-1.9.6L6 20l-.6-1.9-1.9-.6 1.9-.6Z"/></symbol>
  <symbol id="home" viewBox="0 0 24 24"><path d="M3.5 10.4 12 3.6l8.5 6.8"/><path d="M5.4 9v10.4A1.6 1.6 0 0 0 7 21h10a1.6 1.6 0 0 0 1.6-1.6V9"/><path d="M9.6 21v-6.2h4.8V21"/></symbol>
  <symbol id="truck" viewBox="0 0 24 24"><path d="M2.8 6.6A1.6 1.6 0 0 1 4.4 5h9.2v10.4H2.8Z"/><path d="M13.6 8.6h3.6l3 3.2v3.6h-6.6"/><circle cx="7" cy="18" r="1.9"/><circle cx="17" cy="18" r="1.9"/><path d="M8.9 15.4h6.2"/></symbol>
  <symbol id="swap" viewBox="0 0 24 24"><path d="M4 8h13l-3.2-3.2M20 16H7l3.2 3.2"/></symbol>
  <symbol id="cart" viewBox="0 0 24 24"><circle cx="9.4" cy="20" r="1.5"/><circle cx="17.6" cy="20" r="1.5"/><path d="M2.8 3.4h2.6l2.3 11.2a1.6 1.6 0 0 0 1.6 1.3h8.1a1.6 1.6 0 0 0 1.6-1.3l1.5-7H6.2"/></symbol>
  <symbol id="shield" viewBox="0 0 24 24"><path d="M12 2.8 4.6 5.9v5.4c0 4.5 3 8.7 7.4 9.9 4.4-1.2 7.4-5.4 7.4-9.9V5.9Z"/><path d="m9.2 11.8 2 2 3.6-3.8"/></symbol>
  <symbol id="cog" viewBox="0 0 24 24"><circle cx="12" cy="12" r="3"/><path d="M19.3 14.2a1.6 1.6 0 0 0 .3 1.8l.1.1a1.9 1.9 0 1 1-2.7 2.7l-.1-.1a1.6 1.6 0 0 0-1.8-.3 1.6 1.6 0 0 0-1 1.5v.2a1.9 1.9 0 1 1-3.8 0v-.1a1.6 1.6 0 0 0-1-1.5 1.6 1.6 0 0 0-1.8.3l-.1.1a1.9 1.9 0 1 1-2.7-2.7l.1-.1a1.6 1.6 0 0 0 .3-1.8 1.6 1.6 0 0 0-1.5-1H3.4a1.9 1.9 0 1 1 0-3.8h.1a1.6 1.6 0 0 0 1.5-1 1.6 1.6 0 0 0-.3-1.8l-.1-.1a1.9 1.9 0 1 1 2.7-2.7l.1.1a1.6 1.6 0 0 0 1.8.3h.1a1.6 1.6 0 0 0 1-1.5V3.4a1.9 1.9 0 1 1 3.8 0v.1a1.6 1.6 0 0 0 1 1.5 1.6 1.6 0 0 0 1.8-.3l.1-.1a1.9 1.9 0 1 1 2.7 2.7l-.1.1a1.6 1.6 0 0 0-.3 1.8v.1a1.6 1.6 0 0 0 1.5 1h.2a1.9 1.9 0 1 1 0 3.8h-.1a1.6 1.6 0 0 0-1.5 1Z"/></symbol>
  <symbol id="help" viewBox="0 0 24 24"><circle cx="12" cy="12" r="9"/><path d="M9.4 9.4a2.7 2.7 0 0 1 5.2.9c0 1.8-2.6 2.7-2.6 2.7"/><path d="M12 17.2h.01"/></symbol>
  <symbol id="users" viewBox="0 0 24 24"><path d="M15.6 20.4v-1.8a3.6 3.6 0 0 0-3.6-3.6H6.8a3.6 3.6 0 0 0-3.6 3.6v1.8"/><circle cx="9.4" cy="7.4" r="3.4"/><path d="M21 20.4v-1.8a3.6 3.6 0 0 0-2.7-3.5M15.6 4.1a3.6 3.6 0 0 1 0 6.9"/></symbol>
  <symbol id="chart" viewBox="0 0 24 24"><path d="M3.4 20.6h17.2"/><rect x="5" y="11" width="3.6" height="6.6" rx="1"/><rect x="10.2" y="6.6" width="3.6" height="11" rx="1"/><rect x="15.4" y="13.4" width="3.6" height="4.2" rx="1"/></symbol>
  <symbol id="clock" viewBox="0 0 24 24"><circle cx="12" cy="12" r="8.6"/><path d="M12 7.2V12l3.2 1.9"/></symbol>
  <symbol id="search" viewBox="0 0 24 24"><circle cx="10.8" cy="10.8" r="6.8"/><path d="m20.4 20.4-4.7-4.7"/></symbol>
  <symbol id="bell" viewBox="0 0 24 24"><path d="M18.4 10.4a6.4 6.4 0 1 0-12.8 0c0 6-2.4 7.8-2.4 7.8h17.6s-2.4-1.8-2.4-7.8Z"/><path d="M13.8 21.4a2 2 0 0 1-3.6 0"/></symbol>
  <symbol id="menu" viewBox="0 0 24 24"><path d="M3.6 6.4h16.8M3.6 12h16.8M3.6 17.6h16.8"/></symbol>
  <symbol id="x" viewBox="0 0 24 24"><path d="M18 6 6 18M6 6l12 12"/></symbol>
  <symbol id="chevron" viewBox="0 0 24 24"><path d="m9 5 7 7-7 7"/></symbol>
  <symbol id="chevronDown" viewBox="0 0 24 24"><path d="m5 9 7 7 7-7"/></symbol>
  <symbol id="arrowRight" viewBox="0 0 24 24"><path d="M4.6 12h14.8M13.4 6l6 6-6 6"/></symbol>
  <symbol id="arrowUp" viewBox="0 0 24 24"><path d="M12 19.4V4.6M6 10.6l6-6 6 6"/></symbol>
  <symbol id="arrowDown" viewBox="0 0 24 24"><path d="M12 4.6v14.8M6 13.4l6 6 6-6"/></symbol>
  <symbol id="check" viewBox="0 0 24 24"><path d="M20 6.4 9.4 17 4 11.6"/></symbol>
  <symbol id="checkCircle" viewBox="0 0 24 24"><circle cx="12" cy="12" r="9"/><path d="m8.4 12.2 2.4 2.4 4.8-5"/></symbol>
  <symbol id="alert" viewBox="0 0 24 24"><path d="M12 3.4 2.6 20h18.8Z"/><path d="M12 9.6v4.2M12 17.2h.01"/></symbol>
  <symbol id="info" viewBox="0 0 24 24"><circle cx="12" cy="12" r="9"/><path d="M12 11.2v5M12 7.8h.01"/></symbol>
  <symbol id="plus" viewBox="0 0 24 24"><path d="M12 4.8v14.4M4.8 12h14.4"/></symbol>
  <symbol id="minus" viewBox="0 0 24 24"><path d="M4.8 12h14.4"/></symbol>
  <symbol id="filter" viewBox="0 0 24 24"><path d="M3.6 5.2h16.8l-6.4 7.6v6l-4 2v-8Z"/></symbol>
  <symbol id="sort" viewBox="0 0 24 24"><path d="M7 4.6v14.8M7 19.4l-3-3M7 19.4l3-3M17 19.4V4.6M17 4.6l-3 3M17 4.6l3 3"/></symbol>
  <symbol id="eye" viewBox="0 0 24 24"><path d="M2.4 12S6 5.4 12 5.4 21.6 12 21.6 12 18 18.6 12 18.6 2.4 12 2.4 12Z"/><circle cx="12" cy="12" r="3.2"/></symbol>
  <symbol id="eyeOff" viewBox="0 0 24 24"><path d="M9.6 5.8A9.7 9.7 0 0 1 12 5.4c6 0 9.6 6.6 9.6 6.6a17 17 0 0 1-3 3.8M6 7.4A16.6 16.6 0 0 0 2.4 12S6 18.6 12 18.6a9.5 9.5 0 0 0 4-.9"/><path d="M9.9 9.9a3.2 3.2 0 0 0 4.3 4.3M3 3l18 18"/></symbol>
  <symbol id="refresh" viewBox="0 0 24 24"><path d="M20.6 11.4A8.6 8.6 0 1 0 19 17"/><path d="M20.6 4.8v6.6H14"/></symbol>
  <symbol id="download" viewBox="0 0 24 24"><path d="M12 3.6v12.2M7.4 11.2 12 15.8l4.6-4.6"/><path d="M4 19.4h16"/></symbol>
  <symbol id="upload" viewBox="0 0 24 24"><path d="M12 16.4V4.2M7.4 8.8 12 4.2l4.6 4.6"/><path d="M4 19.4h16"/></symbol>
  <symbol id="link" viewBox="0 0 24 24"><path d="M10.2 13.8a4 4 0 0 0 5.7 0l3.1-3.1a4 4 0 0 0-5.7-5.7l-1.3 1.3"/><path d="M13.8 10.2a4 4 0 0 0-5.7 0L5 13.3a4 4 0 0 0 5.7 5.7l1.3-1.3"/></symbol>
  <symbol id="copy" viewBox="0 0 24 24"><rect x="8.6" y="8.6" width="11.8" height="11.8" rx="2"/><path d="M15.4 5.4H5.6a2 2 0 0 0-2 2v9.8"/></symbol>
  <symbol id="print" viewBox="0 0 24 24"><path d="M6.6 9.4V3.6h10.8v5.8"/><rect x="3.6" y="9.4" width="16.8" height="7.4" rx="2"/><path d="M6.6 14.6h10.8v5.8H6.6z"/></symbol>
  <symbol id="edit" viewBox="0 0 24 24"><path d="M11.4 4.6H5.6a2 2 0 0 0-2 2v11.8a2 2 0 0 0 2 2h11.8a2 2 0 0 0 2-2v-5.8"/><path d="M17.8 3.4a2.1 2.1 0 0 1 3 3L12 15l-4 1 1-4Z"/></symbol>
  <symbol id="trash" viewBox="0 0 24 24"><path d="M3.8 6.4h16.4M8.4 6.4V4.8a1.6 1.6 0 0 1 1.6-1.6h4a1.6 1.6 0 0 1 1.6 1.6v1.6"/><path d="M18.2 6.4v13.2a1.6 1.6 0 0 1-1.6 1.6H7.4a1.6 1.6 0 0 1-1.6-1.6V6.4"/><path d="M10.2 10.6v6M13.8 10.6v6"/></symbol>
  <symbol id="key" viewBox="0 0 24 24"><circle cx="7.4" cy="15.6" r="4.4"/><path d="m10.6 12.6 8-8M17 6.2l2.4 2.4M14.6 8.6l2.4 2.4"/></symbol>
  <symbol id="lock" viewBox="0 0 24 24"><rect x="4.6" y="10.4" width="14.8" height="10" rx="2"/><path d="M8.2 10.4V7.2a3.8 3.8 0 0 1 7.6 0v3.2"/></symbol>
  <symbol id="unlock" viewBox="0 0 24 24"><rect x="4.6" y="10.4" width="14.8" height="10" rx="2"/><path d="M8.2 10.4V7.2a3.8 3.8 0 0 1 7.2-1.6"/></symbol>
  <symbol id="logout" viewBox="0 0 24 24"><path d="M9.6 20.4H5.6a2 2 0 0 1-2-2V5.6a2 2 0 0 1 2-2h4"/><path d="m16 16.4 4.4-4.4L16 7.6M20.4 12H9.2"/></symbol>
  <symbol id="sliders" viewBox="0 0 24 24"><path d="M4 6.4h10M18 6.4h2M4 12h4M12 12h8M4 17.6h8M16 17.6h4"/><circle cx="16" cy="6.4" r="2"/><circle cx="10" cy="12" r="2"/><circle cx="14" cy="17.6" r="2"/></symbol>
  <symbol id="database" viewBox="0 0 24 24"><ellipse cx="12" cy="5.6" rx="7.8" ry="3"/><path d="M4.2 5.6v12.8c0 1.7 3.5 3 7.8 3s7.8-1.3 7.8-3V5.6"/><path d="M4.2 12c0 1.7 3.5 3 7.8 3s7.8-1.3 7.8-3"/></symbol>
  <symbol id="calendar" viewBox="0 0 24 24"><rect x="3.6" y="5" width="16.8" height="15.4" rx="2"/><path d="M3.6 10h16.8M8 3.4v3.4M16 3.4v3.4"/></symbol>
  <symbol id="layers" viewBox="0 0 24 24"><path d="m12 2.8 9 4.6-9 4.6-9-4.6Z"/><path d="m3 12.4 9 4.6 9-4.6M3 17l9 4.6 9-4.6"/></symbol>
  <symbol id="target" viewBox="0 0 24 24"><circle cx="12" cy="12" r="8.6"/><circle cx="12" cy="12" r="4.8"/><circle cx="12" cy="12" r="1.2" fill="currentColor"/></symbol>
  <symbol id="zap" viewBox="0 0 24 24"><path d="M13.4 2.6 4 13.8h7L10.6 21.4 20 10.2h-7Z"/></symbol>
  <symbol id="flame" viewBox="0 0 24 24"><path d="M12 21.4c3.6 0 6.4-2.6 6.4-6 0-4.4-4-6.4-4-10.4-2 1.4-3 3.4-3 5.2 0 1.4-1 2-1.6 1.2-.5-.6-.6-1.6-.6-2.4-1.4 1.6-3.6 3.8-3.6 6.4 0 3.4 2.8 6 6.4 6Z"/></symbol>
  <symbol id="tag" viewBox="0 0 24 24"><path d="M20.4 12.6 12 21a1.9 1.9 0 0 1-2.7 0l-6.4-6.4V4.4a1.9 1.9 0 0 1 1.9-1.9h10.2l5.4 5.4a1.9 1.9 0 0 1 0 2.7Z"/><path d="M7.4 7.4h.01"/></symbol>
  <symbol id="pin" viewBox="0 0 24 24"><path d="M12 21.4s7-5.6 7-11a7 7 0 1 0-14 0c0 5.4 7 11 7 11Z"/><circle cx="12" cy="10.2" r="2.6"/></symbol>
  <symbol id="moon" viewBox="0 0 24 24"><path d="M20.4 13.6A8.6 8.6 0 1 1 10.4 3.6a6.7 6.7 0 0 0 10 10Z"/></symbol>
  <symbol id="sun" viewBox="0 0 24 24"><circle cx="12" cy="12" r="4.2"/><path d="M12 2.6v2.2M12 19.2v2.2M4.2 12H2M22 12h-2.2M6.3 6.3 4.8 4.8M19.2 19.2l-1.5-1.5M17.7 6.3l1.5-1.5M4.8 19.2l1.5-1.5"/></symbol>
  <symbol id="palette" viewBox="0 0 24 24"><path d="M12 21.4a9.4 9.4 0 1 1 0-18.8c5.2 0 9.4 3.6 9.4 8 0 2.6-2 4.2-4.4 4.2h-1.8a2 2 0 0 0-1.4 3.4 1.9 1.9 0 0 1-1.4 3.2Z"/><circle cx="7.6" cy="11.4" r="1.1" fill="currentColor"/><circle cx="10.4" cy="7.6" r="1.1" fill="currentColor"/><circle cx="15.4" cy="8.4" r="1.1" fill="currentColor"/></symbol>
  <symbol id="history" viewBox="0 0 24 24"><path d="M3.6 12a8.4 8.4 0 1 0 2.6-6"/><path d="M3.4 3.8v4.4h4.4"/><path d="M12 7.6V12l3 1.8"/></symbol>
  <symbol id="file" viewBox="0 0 24 24"><path d="M14 3.4H6.8a1.8 1.8 0 0 0-1.8 1.8v13.6a1.8 1.8 0 0 0 1.8 1.8h10.4a1.8 1.8 0 0 0 1.8-1.8V8.2Z"/><path d="M14 3.4v4.8h4.8M8.6 13h6.8M8.6 16.4h4.4"/></symbol>
  <symbol id="external" viewBox="0 0 24 24"><path d="M14 3.6h6.4V10"/><path d="m20.4 3.6-9 9"/><path d="M19.4 14v5.4a1.8 1.8 0 0 1-1.8 1.8H5.2a1.8 1.8 0 0 1-1.8-1.8V6.6a1.8 1.8 0 0 1 1.8-1.8H10"/></symbol>
  <symbol id="chevronsLeft" viewBox="0 0 24 24"><path d="m11 17-5-5 5-5M18 17l-5-5 5-5"/></symbol>
  <symbol id="save" viewBox="0 0 24 24"><path d="M18.4 20.4H5.6a1.8 1.8 0 0 1-1.8-1.8V5.4a1.8 1.8 0 0 1 1.8-1.8h9.6l5.2 5.2v9.8a1.8 1.8 0 0 1-1.8 1.8Z"/><path d="M16.6 20.4v-7H7.4v7M7.4 3.6v4.6h6"/></symbol>
  <symbol id="scale" viewBox="0 0 24 24"><path d="M12 3.4v17.2M7 20.6h10"/><path d="M5 6.6h14"/><path d="m5 6.6-2.6 6a3 3 0 0 0 5.2 0Z"/><path d="m19 6.6-2.6 6a3 3 0 0 0 5.2 0Z"/></symbol>
  <symbol id="route" viewBox="0 0 24 24"><circle cx="5.6" cy="18.4" r="2.6"/><circle cx="18.4" cy="5.6" r="2.6"/><path d="M8.2 18.4h5.4a4 4 0 0 0 0-8H10a4 4 0 0 1 0-8h5.4"/></symbol>
  <symbol id="building" viewBox="0 0 24 24"><rect x="4.4" y="3.4" width="15.2" height="17.2" rx="2"/><path d="M8.6 7.4h2M13.4 7.4h2M8.6 11.4h2M13.4 11.4h2M10 20.6v-4.2h4v4.2"/></symbol>
</svg>